PathFileType	4	(X/Y/Z)	 s03c0401.trc
DataRate	CameraRate	NumFrames	NumMarkers	Units	OrigDataRate	OrigDataStartFrame	OrigNumFrames
200	200	5	52	mm	200	1501	2000
Frame#	Time	racr			lacr			c7			jug			rlel			rdr			llel			ldr			s2			lic			ric			lasi			rasi			rpsi			lpsi			rgt			lgt			rth1			rth2			rth3			rth4			rlfc			rmfc			rsh1			rsh2			rsh3			rsh4			rlmal			rmmal			rcal			rtoe			rmt5			rmt1			lth1			lth2			lth4			lth3			llfc			lmfc			lsh1			lsh2			lsh3			lsh4			llmal			lmmal			lcal			ltoe			lmt1			lmt5			SBIKE			LBIKE			RBIKE			
		X1	Y1	Z1	X2	Y2	Z2	X3	Y3	Z3	X4	Y4	Z4	X5	Y5	Z5	X6	Y6	Z6	X7	Y7	Z7	X8	Y8	Z8	X9	Y9	Z9	X10	Y10	Z10	X11	Y11	Z11	X12	Y12	Z12	X13	Y13	Z13	X14	Y14	Z14	X15	Y15	Z15	X16	Y16	Z16	X17	Y17	Z17	X18	Y18	Z18	X19	Y19	Z19	X20	Y20	Z20	X21	Y21	Z21	X22	Y22	Z22	X23	Y23	Z23	X24	Y24	Z24	X25	Y25	Z25	X26	Y26	Z26	X27	Y27	Z27	X28	Y28	Z28	X29	Y29	Z29	X30	Y30	Z30	X31	Y31	Z31	X32	Y32	Z32	X33	Y33	Z33	X34	Y34	Z34	X35	Y35	Z35	X36	Y36	Z36	X37	Y37	Z37	X38	Y38	Z38	X39	Y39	Z39	X40	Y40	Z40	X41	Y41	Z41	X42	Y42	Z42	X43	Y43	Z43	X44	Y44	Z44	X45	Y45	Z45	X46	Y46	Z46	X47	Y47	Z47	X48	Y48	Z48	X49	Y49	Z49	X50	Y50	Z50	X51	Y51	Z51	X52	Y52	Z52	
1501	7.5050	801.123539	1381.234580	-48.506728	744.820150	1389.204505	-363.245851	729.497553	1477.977075	-191.681047	706.033949	1302.705597	-202.028476	638.083256	1194.104547	126.900733	743.741045	977.995581	2.391096	630.782165	1220.901322	-564.283002	732.273413	983.101290	-454.004463	164.539677	1285.523163	-128.575628	321.575888	1317.336743	-321.258362	355.047658	1269.853832	36.043621	340.512871	1244.836481	-289.116064	368.141554	1201.481938	-18.215698	205.312369	1324.937910	-76.394258	198.367554	1338.235343	-156.942077	265.066038	1154.326574	37.474390	276.076480	1238.117326	-350.417781	285.962864	998.943220	40.827079	325.412432	919.292172	33.645424	322.639719	835.211757	15.619285	360.585986	928.381362	26.277849	334.159483	714.757791	-30.080978	339.916415	704.068549	-145.535111	275.330231	559.044116	-7.433376	269.879333	471.045654	-24.600953	220.895015	397.752770	-30.132931	299.177546	464.998142	-49.374503	170.010975	280.553598	-56.134216	192.420605	289.245341	-135.555938	99.879716	278.680985	-85.356532	360.829101	109.745081	-119.843109	256.381877	153.944643	-38.440232	280.555230	166.149413	-152.456735	377.887831	1137.826368	-394.571702	454.091410	1099.227234	-410.010113	481.534306	1123.267806	-390.396990	501.176236	1025.000197	-424.911347	602.628440	936.439101	-428.276381	614.801701	906.702966	-300.170395	467.670636	829.284365	-446.228317	419.188569	761.442870	-425.892193	336.836243	723.758243	-418.497168	440.963536	738.075702	-404.533559	236.376696	651.471921	-398.857592	274.800033	642.849168	-311.238651	157.595818	651.033378	-349.740578	392.818641	450.932966	-352.930811	318.584107	506.563703	-308.776934	287.094647	509.621136	-423.672491	-213.661078	946.568639	-229.167926	-6.013389	84.121299	-435.015044	-11.498844	81.121237	-34.844249	
1502	7.5100	801.821494	1380.263580	-50.712456	744.516880	1388.714774	-364.827271	729.789657	1477.358635	-193.477443	706.130074	1302.162540	-204.088978	639.018451	1194.158676	125.791815	743.895839	977.891357	1.834829	631.129500	1220.197235	-565.855575	732.140067	983.175011	-453.646792	164.601889	1287.207966	-128.387824	320.879548	1319.047409	-321.135421	355.734208	1270.219992	35.655949	339.693274	1246.748785	-289.726107	368.512147	1202.156471	-19.004602	205.535507	1326.269074	-76.175918	198.328461	1340.117391	-156.763716	265.346380	1155.145359	37.227354	275.575247	1240.026392	-350.783952	285.422054	999.880295	40.555862	324.119187	919.991259	33.604582	321.113343	835.967942	15.643761	359.724717	928.980966	26.123168	331.838460	715.373627	-30.340612	338.346415	704.733190	-146.014917	271.342816	560.654050	-7.484392	264.638190	472.778618	-24.695656	214.871735	400.062020	-29.963755	293.902768	466.359724	-49.453512	162.587166	283.495922	-55.705592	185.401681	291.753207	-135.009346	92.031169	282.684311	-84.976279	350.074752	108.987275	-119.944639	246.563208	155.086794	-38.459465	270.861210	166.789190	-152.485086	377.635780	1139.066278	-393.658534	455.388997	1100.780206	-406.775529	480.736096	1124.344912	-390.404988	502.225353	1027.502293	-423.393057	605.035099	940.570789	-425.817916	617.554266	910.774782	-297.769980	472.047304	830.996813	-444.789748	424.432986	762.512570	-424.677116	342.516047	723.596848	-417.862309	446.336112	739.482801	-403.255456	242.854841	649.201605	-398.804060	281.293319	641.717632	-310.996782	163.825091	647.207023	-349.963692	403.668130	452.770134	-353.099890	328.132152	506.380453	-308.738640	296.816778	508.878528	-423.763765	-213.731289	946.555550	-229.274375	-6.024489	84.145584	-435.051714	-11.497223	81.137481	-34.858686	
1503	7.5150	802.463626	1379.224858	-52.807191	744.089230	1388.320468	-366.365474	730.118244	1476.790847	-195.177760	706.042742	1301.701235	-206.059717	639.933704	1194.192386	125.130006	744.102025	977.824350	1.216522	631.525719	1219.480561	-567.419318	731.943806	983.492717	-453.068894	164.711258	1289.108582	-127.864495	320.404513	1320.963918	-321.170396	356.327569	1270.859799	35.198572	338.897334	1248.709524	-290.195058	368.764810	1203.279152	-19.776362	205.754793	1327.954082	-76.036474	198.293283	1342.217362	-156.597458	265.580819	1156.389518	36.944552	275.143106	1242.074807	-351.335039	285.326505	1001.070512	40.047127	323.794485	921.094673	33.380951	320.504898	836.967211	15.423576	359.350497	929.810641	25.779861	331.021504	716.315167	-29.844973	337.836561	705.969254	-146.412236	268.125744	562.740095	-7.654442	260.452487	475.100487	-24.605728	209.287018	402.969531	-29.859577	289.545164	468.310245	-49.445678	155.325828	287.077583	-55.406362	178.368443	294.926014	-134.704206	85.145974	287.460202	-85.358851	339.603393	109.159106	-119.842876	236.879256	157.177658	-38.496501	261.164676	168.169265	-152.614794	377.447636	1140.465253	-393.131436	455.591911	1102.845887	-405.944521	480.691369	1126.597189	-389.488131	503.010229	1029.877435	-422.107350	607.096515	944.239229	-423.293549	619.333172	914.025354	-295.261008	476.056493	831.922808	-442.133276	429.262193	763.045843	-423.395152	347.933659	723.112660	-417.249087	451.442915	740.390370	-401.855967	249.297382	646.230996	-398.517288	287.658694	639.541535	-310.341276	169.745669	642.518611	-350.070966	414.354686	454.099491	-353.350782	337.440069	505.983331	-308.494708	306.216004	507.504696	-423.837003	-213.776185	946.566995	-229.349846	-6.041099	84.155685	-435.080928	-11.517844	81.172998	-34.895370	
1504	7.5200	803.002949	1378.167891	-54.937075	743.622743	1387.835158	-367.887522	730.479337	1476.165954	-196.862497	705.847542	1301.200824	-207.965596	640.860944	1194.255027	124.472496	744.307238	977.786894	0.628522	631.956906	1218.777932	-568.896665	731.755112	983.764133	-452.581182	164.496827	1291.084919	-128.021096	320.014153	1323.060851	-321.502528	356.719500	1271.746496	34.655879	338.156967	1250.855799	-290.771018	368.915284	1204.384111	-20.571566	205.922365	1329.901988	-75.944677	198.209037	1344.403438	-156.457467	265.762586	1157.899518	36.627186	274.845576	1244.200833	-351.955816	285.636404	1002.417255	39.292439	324.050053	922.496087	32.932292	320.724331	838.415876	15.083085	359.554744	931.244279	25.283760	330.961950	717.433437	-30.190233	337.948097	707.857801	-146.905811	265.705662	565.092783	-7.856124	256.210160	477.500736	-25.250364	204.078101	406.465611	-29.850448	284.938728	470.188881	-50.138586	148.114715	291.590377	-55.445848	171.445734	298.795257	-134.569227	78.029062	292.895975	-85.515883	329.301015	110.349316	-119.515855	227.373164	160.281366	-38.414827	251.690520	170.292919	-152.471276	377.413174	1142.074412	-392.690766	455.853883	1104.836059	-405.135956	480.746495	1128.686436	-388.496121	503.676285	1031.969031	-420.644936	608.728999	947.541320	-420.762577	620.322087	916.957174	-292.704257	479.498760	832.731895	-440.280537	433.711970	763.007115	-421.973910	352.974605	721.891100	-416.554928	456.166199	740.664848	-400.536928	255.347550	642.509342	-398.287952	293.402184	636.734854	-309.824854	175.441768	637.027991	-350.112536	424.993124	454.515957	-352.523638	346.236151	504.685230	-308.132247	315.385476	505.598325	-424.037802	-213.835625	946.601352	-229.441110	-6.053541	84.150753	-435.102628	-11.533159	81.191977	-34.904124	
1505	7.5250	803.617576	1377.238771	-56.876607	743.164034	1387.336428	-369.330395	730.900590	1475.627638	-198.426280	705.677461	1300.787765	-209.651739	641.716486	1194.345161	123.824108	744.498795	977.720377	0.150473	634.122942	1217.999868	-568.337193	731.580657	984.058502	-452.209156	164.290300	1293.346412	-128.523352	319.754138	1325.221920	-321.931825	356.990808	1272.807505	34.060386	337.544884	1253.077336	-291.456929	368.883425	1205.752080	-21.313409	206.038206	1332.028316	-76.018522	198.097556	1346.759079	-156.286367	265.870527	1159.599058	36.268443	274.790441	1246.412481	-352.510064	286.477503	1003.845416	37.939901	324.865410	924.214917	32.204769	321.771403	840.062202	14.579393	360.429385	933.116591	24.545712	332.267375	718.731779	-30.295764	338.596111	710.011146	-147.377550	264.176653	567.743768	-8.060857	252.873963	480.494123	-25.684239	199.401236	410.488200	-29.985494	281.409369	472.612304	-50.690658	140.826305	296.397165	-55.748142	164.983761	303.310404	-134.637791	71.283441	299.335671	-86.070704	318.641619	111.757546	-119.297863	217.518239	163.549322	-38.746212	242.374197	173.334654	-152.610299	377.371359	1143.546253	-392.155687	455.997971	1106.481349	-403.994805	480.716356	1130.546309	-387.423663	504.114468	1033.806568	-419.138677	609.976690	950.250318	-418.059948	620.693005	920.485333	-289.820608	482.461450	832.939938	-438.323975	437.731060	762.343002	-420.546584	357.669190	720.045973	-415.724387	460.507683	740.327505	-399.024197	261.154901	638.093606	-398.024331	298.641894	633.099473	-309.297917	180.865069	630.348983	-350.216569	435.189857	454.917969	-352.496593	355.436616	502.707265	-308.424267	324.340447	503.066047	-423.999186	-213.871786	946.628186	-229.455611	-6.042030	84.178747	-435.049191	-11.559053	81.308935	-34.887802	
